# xmcd
#
# Track frame offsets: 
#        150
#        17990
#        40546
#        59367
#        81164
#        103022
#        123115
#        141897
#        161241
#        186226
#        208793
#        234568
#        253297
#        280655
#        302619
#        323950
#
# Disc length: 4533 seconds
#
# Revision: 0
# Processed by: cddbd v1.5.1PL2 Copyright (c) Steve Scherf et al.
# Submitted via: ExactAudioCopy v0.95b3
#
DISCID=e411b310
DTITLE=Whitney Houston - Whatchlookinat Miracle
DYEAR=2005
DGENRE=
TTITLE0=Saving All My Love For You
TTITLE1=Someone For Me
TTITLE2=You Give Good Love
TTITLE3=Greatest Love Of All
TTITLE4=Wanna Dance With Somebody (Who Lovers Me)
TTITLE5=Was Made To Love Him
TTITLE6=Where Are You
TTITLE7=You`re Still My Man
TTITLE8=For The Love Of You
TTITLE9=I`m Your Baby Tonight
TTITLE10=Miracle
TTITLE11=Whatchuloookinat (P.Diddy Remix)
TTITLE12=Hold Me
TTITLE13=It`s Not Right But It`s Okn
TTITLE14=Have Yourself A Merry Little Christmas
TTITLE15=Whatcha Looking At
EXTD=
EXTT0=
EXTT1=
EXTT2=
EXTT3=
EXTT4=
EXTT5=
EXTT6=
EXTT7=
EXTT8=
EXTT9=
EXTT10=
EXTT11=
EXTT12=
EXTT13=
EXTT14=
EXTT15=
PLAYORDER=
